{
  "asset": {
    "generator": "Khronos glTF Blender I/O v1.5.17",
    "version": "2.0"
  },
  "scene": 0,
  "scenes": [
    {
      "name": "Scene",
      "nodes": [
        0
      ]
    }
  ],
  "nodes": [
    {
      "mesh": 0,
      "name": "sphere_gltf"
    }
  ],
  "materials": [
    {
      "doubleSided": true,
      "name": "aerial_rocks_01",
      "normalTexture": {
        "index": 0
      },
      "pbrMetallicRoughness": {
        "baseColorTexture": {
          "index": 1
        },
        "metallicFactor": 0,
        "metallicRoughnessTexture": {
          "index": 2
        }
      }
    }
  ],
  "meshes": [
    {
      "name": "Sphere.001",
      "primitives": [
        {
          "attributes": {
            "POSITION": 0,
            "NORMAL": 1,
            "TEXCOORD_0": 2
          },
          "indices": 3,
          "material": 0
        }
      ]
    }
  ],
  "textures": [
    {
      "sampler": 0,
      "source": 0
    },
    {
      "sampler": 0,
      "source": 1
    },
    {
      "sampler": 0,
      "source": 2
    }
  ],
  "images": [
    {
      "mimeType": "image/jpeg",
      "name": "aerial_rocks_01_nor_gl_4k",
      "uri": "textures/aerial_rocks_01_nor_gl_1k.jpg"
    },
    {
      "mimeType": "image/jpeg",
      "name": "aerial_rocks_01_diff_4k",
      "uri": "textures/aerial_rocks_01_diff_1k.jpg"
    },
    {
      "mimeType": "image/jpeg",
      "name": "aerial_rocks_01_rough_4k",
      "uri": "textures/aerial_rocks_01_rough_1k.jpg"
    }
  ],
  "accessors": [
    {
      "bufferView": 0,
      "componentType": 5126,
      "count": 53912,
      "max": [
        39.46636199951172,
        39.83681106567383,
        40.42424392700195
      ],
      "min": [
        -39.46635055541992,
        -39.79386901855469,
        -40.425933837890625
      ],
      "type": "VEC3"
    },
    {
      "bufferView": 1,
      "componentType": 5126,
      "count": 53912,
      "type": "VEC3"
    },
    {
      "bufferView": 2,
      "componentType": 5126,
      "count": 53912,
      "type": "VEC2"
    },
    {
      "bufferView": 3,
      "componentType": 5123,
      "count": 322170,
      "type": "SCALAR"
    }
  ],
  "bufferViews": [
    {
      "buffer": 0,
      "byteLength": 646944,
      "byteOffset": 0
    },
    {
      "buffer": 0,
      "byteLength": 646944,
      "byteOffset": 646944
    },
    {
      "buffer": 0,
      "byteLength": 431296,
      "byteOffset": 1293888
    },
    {
      "buffer": 0,
      "byteLength": 644340,
      "byteOffset": 1725184
    }
  ],
  "samplers": [
    {
      "magFilter": 9729,
      "minFilter": 9987
    }
  ],
  "buffers": [
    {
      "byteLength": 2369524,
      "uri": "planet1.bin"
    }
  ]
}